<?xml version="1.0" encoding="UTF-8"?>
<svg xmlns="http://www.w3.org/2000/svg" version="1.1" viewBox="0 0 1166 390">
  <defs>
    <style>
      .cls-1 {
        fill: #fff;
      }
    </style>
  </defs>
  <!-- Generator: Adobe Illustrator 28.7.1, SVG Export Plug-In . SVG Version: 1.2.0 Build 142)  -->
  <g>
    <g id="Capa_1">
      <g>
        <g>
          <rect class="cls-1" x="434" y="53.6" width="7.4" height="79.3"/>
          <polygon class="cls-1" points="500.2 132.9 506.9 132.9 506.9 53.6 499.6 53.6 499.6 102.6 500.2 112.1 497.5 103 480.9 54.1 480.7 53.6 473.8 53.6 473.8 132.9 481.2 132.9 481.2 85.3 480.7 74.8 483.7 84.9 500.2 132.9"/>
          <path class="cls-1" d="M570.6,116.8v-5.7c0-7.7-6.1-11.1-13.2-15l-1.9-1.1c-4.6-2.6-8.8-5.3-9.1-9.9v-15.3c0-6.4,2.7-9.9,7.6-9.9s7.4,6.1,7.4,9.8v10.8h7.2v-10.9c0-9.9-5.8-16.5-14.5-16.5s-15,6.4-15,16.8v15.6c.7,8.8,7.7,12.7,13.8,16.1l2.6,1.4c4.7,2.6,8.1,4.5,8.1,8.7v5.2c0,5-2.2,10.3-8.5,10.3s-4.7-.9-6.2-2.5c-1.8-1.9-2.8-4.8-2.7-8v-8.3h-7.3v8.3c0,5.1,1.6,9.5,4.7,12.7,2.9,3,6.9,4.5,11.5,4.5,9.5,0,15.6-6.7,15.6-17Z"/>
          <polygon class="cls-1" points="608.6 132.9 615.8 132.9 615.8 60.2 626.6 60.2 626.6 53.6 597.7 53.6 597.7 60.2 608.6 60.2 608.6 132.9"/>
          <rect class="cls-1" x="655.8" y="53.6" width="7.4" height="79.3"/>
          <polygon class="cls-1" points="691.3 60.2 702.2 60.2 702.2 132.9 709.4 132.9 709.4 60.2 720.2 60.2 720.2 53.6 691.3 53.6 691.3 60.2"/>
          <path class="cls-1" d="M780.7,53.6h-7.2v63.1c0,4.7-1.5,10.4-8.7,10.4s-8.5-5.6-8.5-10.5v-63h-7.4v63c0,10,6.7,17.2,15.9,17.2s15.9-8.9,15.9-17.1v-63.1Z"/>
          <polygon class="cls-1" points="838.3 53.6 809.4 53.6 809.4 60.2 820.3 60.2 820.3 132.9 827.5 132.9 827.5 60.2 838.3 60.2 838.3 53.6"/>
          <path class="cls-1" d="M898.2,69.9c0-8.4-5.3-17-15.5-17s-16.2,8.7-16.2,16.9v47c0,9.9,6.7,16.9,16.2,16.9s15.5-8.8,15.5-17v-46.8ZM891,116.7c0,4.7-2.2,10.1-8.4,10.1s-8.8-5.2-8.8-10v-47c0-6.3,3.3-10.1,8.8-10.1s8.4,5.1,8.4,10.3v46.8Z"/>
          <path class="cls-1" d="M441.4,211.2h11.5l3.2,20.8h7.3l-12.3-79.3h-8.1l-12.2,79.3h7.4l3.2-20.8ZM445.1,186.3l2-16.8,2,16.9,2.9,18h-9.7l2.8-18.1Z"/>
          <path class="cls-1" d="M500.6,211.6h10.3c3.8,0,6.1,2.2,6.1,5.9v14.4h7.3v-14.4c0-4.6-2.2-8.4-6-10.4,3.9-3.1,5.6-8.2,5.6-12.1v-25.9c.1-5.2-1.2-9.3-4-12.2-2.7-2.8-6.8-4.3-11.8-4.4h-14.9v79.3h7.4v-20.3ZM500.6,159.4h7.5c5.5,0,8.6,3.5,8.6,9.8v25.9c0,6.4-5,9.8-8.6,9.8h-7.5v-45.5Z"/>
          <path class="cls-1" d="M570.8,152.4c-9.3,0-15.9,7.1-15.9,17.2v46.1c0,10.5,6.2,17,16.1,17s15.5-6.8,15.5-16.9v-11.6h-18.5v6.6h11.3v5c0,6.6-2.9,10-8.4,10s-8.7-3.7-8.7-10.1v-46.1c0-6.3,3.4-10.5,8.6-10.5,7.8,0,8.7,7.2,8.7,10.4v7.9h7.1v-7.9c0-10.4-6.2-17.1-15.9-17.1Z"/>
          <polygon class="cls-1" points="617.4 232 645.9 232 645.9 225.3 624.8 225.3 624.8 211.2 641.6 211.2 641.6 204.6 624.8 204.6 624.8 159.3 645.9 159.3 645.9 152.7 617.4 152.7 617.4 232"/>
          <polygon class="cls-1" points="701.9 201.7 702.4 211.2 699.8 202.1 682.9 152.7 676.1 152.7 676.1 232 683.5 232 683.5 184.4 682.9 173.9 685.9 184 702.3 231.5 702.4 232 709.2 232 709.2 152.7 701.9 152.7 701.9 201.7"/>
          <polygon class="cls-1" points="738 159.3 748.9 159.3 748.9 232 756.1 232 756.1 159.3 766.8 159.3 766.8 152.7 738 152.7 738 159.3"/>
          <rect class="cls-1" x="796" y="152.7" width="7.4" height="79.3"/>
          <polygon class="cls-1" points="861.7 201.7 862.2 211.2 859.6 202.1 842.7 152.7 835.9 152.7 835.9 232 843.3 232 843.3 184.4 842.7 173.9 845.7 184 862 231.5 862.2 232 869 232 869 152.7 861.7 152.7 861.7 201.7"/>
          <path class="cls-1" d="M917.2,152c-11.1,0-16.2,8.7-16.2,16.9v47c0,9.9,6.7,16.9,16.2,16.9s15.5-8.8,15.5-17v-46.8c0-8.4-5.3-17-15.5-17ZM925.6,215.8c0,4.7-2.2,10.1-8.4,10.1s-8.8-5.2-8.8-10v-47c0-6.3,3.3-10.1,8.8-10.1s8.4,5.1,8.4,10.3v46.8Z"/>
          <path class="cls-1" d="M449.3,251.8h-15.2v79.3h15.5c10.7,0,16.1-5.4,16.1-16.1v-46.8c0-15.1-8.5-16.4-16.4-16.4ZM458.5,315c0,8.4-4.8,9.1-9.3,9.1h-7.8v-65.6h7.8c5.6,0,9.3.7,9.3,9.7v46.8Z"/>
          <polygon class="cls-1" points="497.8 331.1 526.4 331.1 526.4 324.4 505.2 324.4 505.2 310.3 522 310.3 522 303.7 505.2 303.7 505.2 258.4 526.4 258.4 526.4 251.8 497.8 251.8 497.8 331.1"/>
          <path class="cls-1" d="M611.4,251c-9.8,0-16.1,6.8-16.1,17.3v46.2c0,10.2,6.7,17.3,16.2,17.3s15.6-8.9,15.6-17.1v-7.4h-7.2v7.4c0,5-2.2,10.3-8.5,10.3s-8.8-5.4-8.8-10.4v-46.3c0-6.4,3.5-10.5,8.8-10.5s8.6,3.4,8.6,10.5v7.8h7.1v-7.9c0-10.6-6-17.2-15.8-17.2Z"/>
          <path class="cls-1" d="M674.2,251.1c-11.1,0-16.2,8.7-16.2,16.9v47c0,9.9,6.7,16.9,16.2,16.9s15.5-8.8,15.5-17v-46.8c0-8.4-5.3-17-15.5-17ZM682.5,314.9c0,4.7-2.2,10.1-8.4,10.1s-8.8-5.2-8.8-10v-47c0-6.3,3.3-10.1,8.8-10.1s8.4,5.1,8.4,10.3v46.8Z"/>
          <path class="cls-1" d="M737,251c-9.8,0-16.1,6.8-16.1,17.3v46.2c0,10.2,6.7,17.3,16.2,17.3s15.6-8.9,15.6-17.1v-7.4h-7.2v7.4c0,5-2.2,10.3-8.5,10.3s-8.8-5.4-8.8-10.4v-46.3c0-6.4,3.5-10.5,8.8-10.5s8.6,3.4,8.6,10.5v7.8h7.1v-7.9c0-10.6-6-17.2-15.8-17.2Z"/>
          <polygon class="cls-1" points="780.3 258.4 791.2 258.4 791.2 331.1 798.4 331.1 798.4 258.4 809.2 258.4 809.2 251.8 780.3 251.8 780.3 258.4"/>
          <polygon class="cls-1" points="838.3 331.1 866.8 331.1 866.8 324.4 845.7 324.4 845.7 310.3 862.5 310.3 862.5 303.7 845.7 303.7 845.7 258.4 866.8 258.4 866.8 251.8 838.3 251.8 838.3 331.1"/>
          <polygon class="cls-1" points="904.2 251.8 896.8 251.8 896.8 331.1 921.2 331.1 921.2 324.4 904.2 324.4 904.2 251.8"/>
          <polygon class="cls-1" points="951.1 331.1 979.6 331.1 979.6 324.4 958.5 324.4 958.5 310.3 975.3 310.3 975.3 303.7 958.5 303.7 958.5 258.4 979.6 258.4 979.6 251.8 951.1 251.8 951.1 331.1"/>
          <path class="cls-1" d="M1034.6,306.3c3.9-3.1,5.6-8.2,5.6-12.1v-25.9c.1-5.2-1.2-9.3-4-12.2-2.7-2.8-6.8-4.3-11.8-4.4h-14.9v79.3h7.4v-20.3h10.3c3.8,0,6.1,2.2,6.1,5.9v14.4h7.3v-14.4c0-4.6-2.2-8.4-6-10.4ZM1033,294.2c0,6.4-5,9.8-8.6,9.8h-7.5v-45.5h7.5c5.5,0,8.6,3.5,8.6,9.8v25.9Z"/>
          <rect class="cls-1" x="1072.4" y="251.8" width="7.4" height="79.3"/>
          <path class="cls-1" d="M1129.3,251.8h-8.1l-12.1,78.4v.9c-.1,0,7.3,0,7.3,0l3.2-20.8h11.5l3.2,20.8h7.3l-12.3-79.3ZM1120.6,303.5l2.8-18.1,2-16.8,2,16.9,2.9,18h-9.7Z"/>
        </g>
        <g>
          <path class="cls-1" d="M55.6,96.5l11.4,68.4c.2,1.4,1.4,2.4,2.8,2.4h39.9c1.4,0,2.6-1,2.8-2.4l11.4-68.4c0,0,0-.1,0-.2,0,0,0-.2,0-.3v-14.6h0c0-12.6-6.9-23.5-17.1-29.4v-22.3c0-5.9-4.8-10.7-10.7-10.7h-12.8c-5.9,0-10.7,4.8-10.7,10.7v22.3c-10.2,5.8-17.1,16.8-17.1,29.4v14.6c0,0,0,.2,0,.3,0,0,0,.1,0,.2ZM107.3,161.6h-35l-8.5-51.3h52.1l-8.5,51.3ZM116.8,104.6h-54l-1-5.7h55.9l-.9,5.7ZM78.4,29.8c0-2.7,2.2-5,5-5h12.8c2.7,0,5,2.2,5,5v.7h-22.8v-.7ZM78.4,36.2h22.8v13.3c-3.5-1.2-7.2-1.9-11.1-1.9h-.6c-3.9,0-7.6.7-11.1,1.9v-13.3ZM61.3,81.5c0-15.5,12.6-28.2,28.2-28.2h.6c15.5,0,28.2,12.7,28.2,28.2v11.7h-57v-11.7Z"/>
          <path class="cls-1" d="M358.7,185.5h-166.2V19.3c0-1.7-1.3-3-3-3s-3,1.3-3,3v166.2H20.3c-1.7,0-3,1.3-3,3s1.3,3,3,3h166.2v166.2c0,1.7,1.3,3,3,3s3-1.3,3-3v-166.2h166.2c1.7,0,3-1.3,3-3s-1.3-3-3-3Z"/>
          <path class="cls-1" d="M141.8,260.9c0-2.4-1.2-4.7-3.2-6-2-1.3-4.6-1.6-6.8-.7l-28.6,11.8c-.9-.9-2.2-1.4-3.5-1.4h-21.8c-1.3,0-2.6.5-3.5,1.4l-28.6-11.8c-2.2-.9-4.8-.7-6.8.7-2,1.4-3.2,3.6-3.2,6s0,.4,0,.5l4.3,23.4-4.3,23.4c0,.2,0,.3,0,.5,0,2.4,1.2,4.7,3.2,6.1,2,1.3,4.6,1.6,6.8.7l28.6-11.8c.9.9,2.2,1.4,3.5,1.4h21.8c1.3,0,2.6-.5,3.5-1.4l28.6,11.8c.9.4,1.8.6,2.8.6,1.4,0,2.8-.4,4.1-1.2,2-1.4,3.2-3.6,3.2-6.1s0-.3,0-.5l-4.3-23.4,4.3-23.4c0-.2,0-.3,0-.5ZM122,295.7c.3-.7.2-1.5,0-2.2-.3-.7-.9-1.3-1.6-1.5l-15.5-5.8v-2.5l15.5-5.8c1.5-.6,2.3-2.3,1.7-3.8-.6-1.5-2.3-2.3-3.8-1.7l-13.5,5v-5.8l29.2-12c.5-.2.9-.1,1.3.1.4.3.6.6.6.9l-3.9,21.3h-12.8c-1.6,0-2.9,1.3-2.9,2.9s1.3,2.9,2.9,2.9h12.8l3.9,21.1c0,.4-.3.8-.6,1.1-.4.3-.9.3-1.3.1l-29.2-12v-5.8l13.5,5c1.4.6,3.2-.2,3.8-1.7ZM98.9,288.2v11.1h-20.3v-29h20.3v17.8ZM55.5,274c-.3.7-.2,1.5,0,2.2.3.7.9,1.3,1.6,1.5l15.5,5.8v2.5l-15.5,5.8c-.7.3-1.3.8-1.6,1.5-.3.7-.3,1.5,0,2.2.6,1.5,2.3,2.3,3.8,1.7l13.5-5v5.8l-29.2,12c-.5.2-.9.1-1.3-.1-.4-.3-.6-.6-.6-.9l3.9-21.3h12.8c1.6,0,2.9-1.3,2.9-2.9s-1.3-2.9-2.9-2.9h-12.8l-3.9-21.1c0-.4.3-.8.6-1.1.4-.3.9-.3,1.3-.1l29.2,12v5.8l-13.5-5c-1.5-.6-3.2.2-3.8,1.7Z"/>
          <path class="cls-1" d="M329.5,239.7h-92.9c-1.3,0-2.5.8-2.9,2-.5,1.2-.1,2.6.9,3.5l45.4,39.5v38.9h-21.1c-1.7,0-3.1,1.4-3.1,3.1s1.4,3.1,3.1,3.1h48.4c1.7,0,3.1-1.4,3.1-3.1s-1.4-3.1-3.1-3.1h-21.1v-38.9l45.4-39.5c1-.9,1.3-2.2.9-3.5-.5-1.2-1.6-2-2.9-2ZM321.2,246l-38.1,33.2-38.1-33.2h76.1Z"/>
          <path class="cls-1" d="M264.2,123.3v3.2c0,2,.8,3.8,2.2,5.2l-6.1,32.6c-.2.9,0,1.8.7,2.5.6.7,1.5,1.1,2.4,1.1h36.3c.9,0,1.8-.4,2.4-1.1.6-.7.8-1.6.7-2.5l-6.1-32.6c1.5-1.4,2.2-3.3,2.2-5.2v-3.2c0-2.1-1-4.2-2.7-5.6l6.5-57.3c.2-.9,0-1.8-.7-2.5-.6-.7-1.5-1.1-2.4-1.1h-36.3c-.9,0-1.8.4-2.4,1.1-.6.7-.8,1.6-.7,2.5l6.5,57.4c-1.7,1.5-2.7,3.5-2.7,5.6ZM272.9,115.7l-5.9-52.8h29.1l-5.9,52.8h-17.2ZM272.2,121.4h18.6c1.3,0,2.4.9,2.4,1.9v3.2c0,1.1-1.1,1.9-2.6,1.9h-18.4c-1.3,0-2.4-.9-2.4-1.9v-3.2c0-1.1,1.1-1.9,2.4-1.9ZM272.2,134.1h18.6l5.2,27.7h-28.9l5.2-27.7Z"/>
        </g>
      </g>
    </g>
  </g>
</svg>